<?xml version="1.0" encoding="UTF-8"?>
<svg version="1.1" viewBox="0 0 2000 2000" width="56" height="56" xmlns="http://www.w3.org/2000/svg">
<path transform="translate(690,149)" d="m0 0h10l12 5 15 11 15 15 10 13 20 30 15 25 14 25 14 27 13 30 13 33 11 33 9 37 6 33 4 38v42l-5 38-8 39 9-3 25-11 25-8 25-6 28-4 22-2h38l34 3 29 5 22 6 18 6 25 11 8 3-8-42-4-31v-52l3-27 5-30 10-42 12-37 13-33 9-21 16-32 13-24 16-27 10-15 12-17 9-12 12-13 13-10 10-6 7-3h10l8 4 10 9 9 14 7 17 5 20 4 31 3 39 1 19v99l-3 63-4 45-4 29-6 29-6 20-7 17-9 16-11 14-14 14-14 11-7 5 1 3 19 12 16 13 8 7 9 8 7 8 12 13 13 18 11 17 10 17 12 23 14 30 16 39 14 41 7 22v3l64-9 56-7 50-5 14-1h17l1 4-8 4-19 5-74 14-83 14-11 2 7 23 7 21 2 3 44 3 42 4 32 4 16 3 10 4 3 3v3l-11 4h-82l-32-1-10-1 6 18 11 27 17 41 16 44 14 41 12 43 7 29 7 33 7 44 3 26 3 34 2 39v33l-2 38-4 41-5 30-6 25-9 32-8 24-10 23-10 20-10 17-9 13-8 10-9 10-13 13-14 11-18 12-18 10-21 10-24 9-40 12-31 7-30 5-32 4-52 5-52 3-107 2-30 1h-38l-28-1-113-2-54-3-63-6-33-5-23-4-32-8-29-9-26-10-20-9-18-10-15-10-12-9-13-11-10-10-9-11-8-11-10-16-10-18-11-23-11-29-8-26-6-24-6-32-4-33-3-38-1-46 1-32 4-49 6-45 6-35 10-42 14-49 12-36 15-41 18-45 11-26 7-18 2-7-13 1-32 1h-79l-8-2-3-2 1-5 9-4 18-4 49-6 34-3 36-2 6-15 7-23 2-10-10-1-105-18-57-11-15-4-8-4v-3l2-1h13l28 2 72 8 67 9 20 3 3-10 13-40 11-30 11-26 17-36 12-22 13-21 12-17 9-11 13-15 10-10 22-18 15-10 9-5-2-4-10-8-8-7-12-11-9-10-10-15-9-19-7-21-6-26-6-42-3-35-3-60v-116l3-44 4-33 5-21 6-15 9-16 5-5 8-7zm64 645-17 3-13 5-11 7-10 9-8 8-9 14-5 12-3 11-1 7v16l4 17 5 12 7 12 11 12 9 8 15 8 16 5 16 2 14-1 17-5 16-8 10-8 9-9 9-14 6-15 3-14v-21l-3-14-7-16-7-11-9-10-12-9-16-8-15-4-8-1zm506 0-17 3-12 5-11 6-12 11-9 10-8 14-5 15-2 10v21l5 19 7 14 9 12 9 9 14 9 14 6 13 3h25l15-4 16-8 10-7 12-12 7-11 7-15 4-17v-17l-2-12-6-16-6-11-11-13-12-10-17-9-15-4-8-1zm-256 58-17 1-18 4-8 5-4 5 1 6 6 8 8 7 10 8 15 10 8 3 6 1h15l12-4 14-9 11-9 7-6 7-9 1-6-4-6-8-4-13-3-8-1-20-1zm-19 271-32 3-35 6-36 9-30 10-26 11-19 9-23 13-24 16-16 12-13 11-10 9-8 7-14 14-7 8-11 13-12 16-10 15-12 20-9 17-9 20-10 25-8 24-5 22-4 26-3 25-2 37v27l2 33 5 38 6 29 7 25 9 25 13 29 11 19 12 17 11 14 15 16 22 18 15 10 21 11 24 9 19 5 15 3 21 2h374l26-3 24-5 23-8 25-12 18-12 11-9 10-9 15-15 9-11 11-15 13-22 8-16 13-32 9-29 6-27 4-26 3-31v-65l-2-29-4-31-6-29-12-36-12-28-11-22-17-28-13-18-10-13-9-10-7-8-4-5h-2l-1-3-8-7-9-9-11-9-12-10-18-13-19-12-21-12-27-13-28-11-28-9-30-7-36-6-33-3z" fill="#bcc4cf"/>
<path transform="translate(1011,1292)" d="m0 0h8l13 3 11 6 14 10 15 14 13 13 11 14 9 13 6 12 2 7v11l-4 6-3 2h-8l-11-7-12-10-15-10-16-8-14-4-19-1-16 2-16 6-15 9-26 20-6 3h-8l-5-5-1-4v-11l4-11 6-11 8-11 12-14 12-13 13-12 14-10 15-7z" fill="#ffff"/>
<path transform="translate(754,1321)" d="m0 0 15 1 15 5 11 6 14 11 11 10 8 7 15 15 10 13 5 11 1 7-3 7-4 4-2 1-10-1-20-12-14-8-12-5-13-3h-18l-16 5-12 6-14 11-11 10-7 8-7 6-10 4h-7l-6-3-4-6v-9l4-14 8-17 8-13 12-17 11-13 9-10 9-8 10-6 6-2z" fill="#ffff"/>
<path transform="translate(1266,1319)" d="m0 0h9l13 4 11 7 11 10 7 8 10 12 13 19 11 19 6 15 2 8v8l-4 6-4 3h-12l-8-4-22-22-13-10-12-7-15-5-7-1h-14l-14 3-15 6-16 10-13 8-5 2h-8l-5-4-2-5v-10l4-9 4-6 11-13 19-19 11-9 14-11 16-8z" fill="#ffff"/>
<path transform="translate(757,835)" d="m0 0h16l10 3 10 7 8 9 5 11 1 4v18l-4 11-8 11-10 7-12 4-9 1-11-2-10-4-9-7-7-10-4-10-1-7v-8l3-12 6-10 8-8 14-7zm12 14-8 4-4 7-1 8 3 8 6 5 6 2 8-1 7-5 3-6 1-6-3-9-6-5-5-2z" fill="#ffff"/>
<path transform="translate(1264,835)" d="m0 0h15l12 4 11 8 7 10 4 9 1 4v15l-3 10-7 11-9 8-11 5-10 2-11-1-12-4-8-6-8-9-5-12-1-4v-15l4-12 7-10 7-6 10-5zm12 14-7 3-5 6-2 5 1 8 4 6 6 5 3 1h7l8-5 5-8v-9l-3-6-5-4-5-2z" fill="#ffff"/>
</svg>
